<!DOCTYPE svg PUBLIC "-//W3C//DTD SVG 20010904//EN" "http://www.w3.org/TR/2001/REC-SVG-20010904/DTD/svg10.dtd">
<svg version="1.0" xmlns="http://www.w3.org/2000/svg" width="50px" height="48px" viewBox="0 0 500 480" preserveAspectRatio="xMidYMid meet">
<g id="layer101" fill="#f6772c" stroke="none">
<path d="M183 330 c-52 -31 -83 -110 -44 -110 12 0 23 11 29 29 14 40 50 62 92 56 36 -4 80 -43 80 -71 0 -8 9 -14 20 -14 26 0 26 25 0 67 -37 61 -116 81 -177 43z"/>
</g>
<g id="layer102" fill="#1ca8dd" stroke="none">
<path d="M140 450 c-96 -52 -139 -124 -140 -229 0 -78 22 -129 80 -186 34 -33 42 -37 50 -25 12 19 13 40 1 40 -20 0 -70 65 -81 106 -29 104 12 206 102 252 79 40 183 27 247 -31 30 -27 60 -93 61 -129 0 -21 5 -28 20 -28 50 0 -1 151 -67 198 -102 71 -183 81 -273 32z"/>
</g>
<g id="layer103" fill="#9aca40" stroke="none">
<path d="M157 389 c-20 -11 -49 -38 -65 -61 -23 -35 -27 -52 -27 -109 0 -38 5 -73 11 -79 16 -16 47 -1 38 19 -16 35 -15 96 3 131 64 123 254 99 279 -36 4 -24 12 -34 25 -34 35 0 17 80 -30 134 -49 56 -162 73 -234 35z"/>
</g>


</svg>