<svg width="28" height="28" xmlns="http://www.w3.org/2000/svg">
 <title>envelope</title>

 <g>
  <title>background</title>
  <rect fill="none" id="canvas_background" height="602" width="802" y="-1" x="-1"/>
 </g>
 <g>
  <title>Layer 1</title>
  <path fill="#6e6e6e" id="svg_1" d="m28,11.094l0,12.406c0,1.375 -1.125,2.5 -2.5,2.5l-23,0c-1.375,0 -2.5,-1.125 -2.5,-2.5l0,-12.406c0.469,0.516 1,0.969 1.578,1.359c2.594,1.766 5.219,3.531 7.766,5.391c1.313,0.969 2.938,2.156 4.641,2.156l0.031,0c1.703,0 3.328,-1.188 4.641,-2.156c2.547,-1.844 5.172,-3.625 7.781,-5.391c0.562,-0.391 1.094,-0.844 1.563,-1.359l-0.001,0zm0,-4.594c0,1.75 -1.297,3.328 -2.672,4.281c-2.438,1.687 -4.891,3.375 -7.313,5.078c-1.016,0.703 -2.734,2.141 -4,2.141l-0.031,0c-1.266,0 -2.984,-1.437 -4,-2.141c-2.422,-1.703 -4.875,-3.391 -7.297,-5.078c-1.109,-0.75 -2.688,-2.516 -2.688,-3.938c0,-1.531 0.828,-2.844 2.5,-2.844l23,0c1.359,0 2.5,1.125 2.5,2.5l0.001,0.001z"/>
 </g>
</svg>