<svg width="20" height="28" xmlns="http://www.w3.org/2000/svg">
 <title>user</title>

 <g>
  <title>background</title>
  <rect fill="none" id="canvas_background" height="602" width="802" y="-1" x="-1"/>
 </g>
 <g>
  <title>Layer 1</title>
  <path fill="#6e6e6e" id="svg_1" d="m20,21.859c0,2.281 -1.5,4.141 -3.328,4.141l-13.344,0c-1.828,0 -3.328,-1.859 -3.328,-4.141c0,-4.109 1.016,-8.859 5.109,-8.859c1.266,1.234 2.984,2 4.891,2s3.625,-0.766 4.891,-2c4.094,0 5.109,4.75 5.109,8.859zm-4,-13.859c0,3.313 -2.688,6 -6,6s-6,-2.688 -6,-6s2.688,-6 6,-6s6,2.688 6,6z"/>
 </g>
</svg>