<svg width="22" height="28" xmlns="http://www.w3.org/2000/svg">
 <title>phone</title>

 <g>
  <title>background</title>
  <rect fill="none" id="canvas_background" height="602" width="802" y="-1" x="-1"/>
 </g>
 <g>
  <title>Layer 1</title>
  <path fill="#6e6e6e" id="svg_1" d="m22,19.375c0,0.562 -0.25,1.656 -0.484,2.172c-0.328,0.766 -1.203,1.266 -1.906,1.656c-0.922,0.5 -1.859,0.797 -2.906,0.797c-1.453,0 -2.766,-0.594 -4.094,-1.078c-0.953,-0.344 -1.875,-0.766 -2.734,-1.297c-2.656,-1.641 -5.859,-4.844 -7.5,-7.5c-0.531,-0.859 -0.953,-1.781 -1.297,-2.734c-0.484,-1.328 -1.078,-2.641 -1.078,-4.094c0,-1.047 0.297,-1.984 0.797,-2.906c0.391,-0.703 0.891,-1.578 1.656,-1.906c0.516,-0.234 1.609,-0.484 2.172,-0.484c0.109,0 0.219,0 0.328,0.047c0.328,0.109 0.672,0.875 0.828,1.188c0.5,0.891 0.984,1.797 1.5,2.672c0.25,0.406 0.719,0.906 0.719,1.391c0,0.953 -2.828,2.344 -2.828,3.187c0,0.422 0.391,0.969 0.609,1.344c1.578,2.844 3.547,4.813 6.391,6.391c0.375,0.219 0.922,0.609 1.344,0.609c0.844,0 2.234,-2.828 3.187,-2.828c0.484,0 0.984,0.469 1.391,0.719c0.875,0.516 1.781,1 2.672,1.5c0.313,0.156 1.078,0.5 1.188,0.828c0.047,0.109 0.047,0.219 0.047,0.328l-0.002,-0.002z"/>
 </g>
</svg>